<svg width="22" height="27" viewBox="-0.1 -0.1 22 27.1" fill="none" xmlns="http://www.w3.org/2000/svg">
<path d="M21.6458 13.0335C21.6361 13.1981 21.5973 13.3434 21.4811 13.4597C20.9483 13.9924 20.4349 14.5543 19.9312 15.1064C19.0788 16.0363 18.2361 16.9662 17.3836 17.8962C16.5409 18.8067 15.6885 19.7269 14.8457 20.6375C14.4195 21.1024 14.003 21.5771 13.5671 22.0324C12.9375 22.6717 12.3466 23.3594 11.7266 24.0084C10.8839 24.8802 10.0799 25.8005 9.26621 26.6916C9.19841 26.7691 9.12091 26.8369 9.05311 26.9047C8.76251 27.1953 8.61721 27.2147 8.30724 26.9532C7.80353 26.527 7.29982 26.0911 6.85424 25.597C6.64113 25.3646 6.64113 25.2193 6.84455 24.9771C7.11578 24.6478 7.39669 24.3378 7.6776 24.0278C8.84 22.7686 10.0024 21.5093 11.1648 20.25C12.9181 18.3514 14.6811 16.4432 16.4343 14.5349C16.7637 14.1765 17.093 13.8084 17.4224 13.4403C17.6355 13.1981 17.6355 13.111 17.403 12.8882C16.8121 12.3263 16.2115 11.7742 15.6013 11.2221C14.2548 9.98217 12.8987 8.74228 11.5523 7.4927C10.4964 6.52404 9.45026 5.54568 8.39442 4.57702C7.63886 3.87958 6.8833 3.18214 6.12774 2.4847C5.74027 2.1263 5.7209 1.77758 6.07931 1.3998C6.43771 1.01233 6.79612 0.624867 7.16421 0.237401C7.43544 -0.0531984 7.68729 -0.0822589 7.97789 0.179281C8.65596 0.779853 9.31465 1.39011 9.98303 2.00037C11.7557 3.62773 13.5187 5.25508 15.2913 6.89213C16.3665 7.88017 17.4514 8.86821 18.517 9.86593C19.4856 10.7668 20.4543 11.658 21.4423 12.5394C21.5779 12.6944 21.6264 12.8591 21.6458 13.0335Z" fill="#3EAEDA"/>
<path d="M15.756 13.2274C15.7754 13.4017 15.6688 13.5083 15.572 13.6148C14.9908 14.2541 14.4096 14.8838 13.809 15.5134C13.0922 16.269 12.4044 17.0536 11.707 17.8188C11.0192 18.5647 10.3315 19.3106 9.64373 20.0565C8.4329 21.3738 7.21239 22.6815 5.99187 23.9989C5.63346 24.3864 5.46879 24.3767 5.08132 24.0183C4.61636 23.5921 4.1514 23.1659 3.69613 22.73C3.46365 22.5072 3.47334 22.3909 3.68644 22.1585C4.62605 21.1414 5.56566 20.1243 6.50526 19.0975C7.28019 18.2547 8.04544 17.4023 8.82037 16.5596C9.62436 15.6878 10.438 14.816 11.242 13.9345C11.3002 13.8764 11.3583 13.8086 11.4067 13.7408C11.6876 13.392 11.6779 13.3242 11.3486 13.0046C10.9224 12.5784 10.4865 12.1715 10.0409 11.7744C8.74288 10.6217 7.4933 9.42051 6.20497 8.25811C5.33318 7.4638 4.46138 6.65981 3.58958 5.85582C3.41522 5.70084 3.23117 5.55554 3.09556 5.3618C2.93089 5.11964 2.90183 4.91622 3.09556 4.69342C3.54115 4.17034 3.99642 3.66664 4.50012 3.19199C4.68417 3.01763 4.92634 3.05638 5.12976 3.24043C5.99187 4.03473 6.86367 4.82904 7.72578 5.62334C8.4329 6.27235 9.13034 6.92135 9.83747 7.56067C10.6802 8.3356 11.5326 9.12022 12.3754 9.89515C13.4312 10.8735 14.4871 11.8519 15.5429 12.8302C15.6591 12.9465 15.7754 13.053 15.756 13.2274Z" fill="#3EAEDA"/>
<path d="M1.85574 6.20435C1.97198 6.22372 2.07853 6.26247 2.16571 6.33996C2.96001 7.06646 3.77369 7.78327 4.54862 8.52914C5.12014 9.07159 5.72071 9.5753 6.28253 10.1178C6.80561 10.6118 7.33838 11.0961 7.87114 11.5804C8.38454 12.0551 8.89793 12.52 9.41132 13.0044C9.79879 13.3725 9.80847 13.5856 9.45007 13.973C8.8495 14.6317 8.23924 15.2904 7.63867 15.9394C6.5247 17.1503 5.40105 18.3611 4.28708 19.5719C3.78338 20.1144 3.28936 20.6568 2.78565 21.1993C2.50474 21.4899 2.40787 21.4996 2.10759 21.2283C1.60388 20.7828 1.10986 20.3275 0.625531 19.8722C0.363992 19.63 0.363992 19.4751 0.596471 19.2135C1.47796 18.2545 2.35944 17.2956 3.23124 16.3366C3.92868 15.581 4.62612 14.8255 5.31387 14.0699C5.64322 13.7018 5.64322 13.5662 5.28481 13.2272C4.00617 12.0357 2.71785 10.8539 1.43921 9.67217C1.013 9.2847 0.596471 8.88755 0.179945 8.49039C-0.042848 8.27729 -0.0622207 8.14168 0.141199 7.89951C0.596471 7.35706 1.0808 6.84366 1.58451 6.33027C1.64263 6.26246 1.72981 6.21403 1.85574 6.20435Z" fill="#3EAEDA"/>
</svg>
